<svg xmlns="http://www.w3.org/2000/svg" fill="none" viewBox="0 0 64 64">
  <g fill="#000" clip-path="url(#a)">
    <path d="M18.62 35.5a2.9 2.9 0 0 1 4.06.56l.02.02a5.33 5.33 0 0 0 .56.63 14.4 14.4 0 0 0 1.9 1.66A11.6 11.6 0 0 0 32 40.73a11.6 11.6 0 0 0 6.83-2.36 14.4 14.4 0 0 0 2.47-2.3h.02a2.9 2.9 0 0 1 4.64 3.5l-2.32-1.75 2.32 1.74v.01l-.01.01-.02.03-.06.08a10.94 10.94 0 0 1-.93 1.05 20.2 20.2 0 0 1-2.68 2.34A17.42 17.42 0 0 1 32 46.55c-4.44 0-7.94-1.78-10.26-3.47a20.2 20.2 0 0 1-3.6-3.4l-.07-.07-.02-.03-.01-.01 2.32-1.75-2.32 1.74a2.9 2.9 0 0 1 .58-4.07ZM20.36 23.27c0-1.6 1.3-2.9 2.91-2.9h.03a2.9 2.9 0 0 1 0 5.81h-.03a2.9 2.9 0 0 1-2.9-2.9ZM40.73 20.36a2.9 2.9 0 0 0 0 5.82h.03a2.9 2.9 0 0 0 0-5.82h-.03Z"/>
    <path fill-rule="evenodd" d="M32 0a32 32 0 1 0 0 64 32 32 0 0 0 0-64ZM5.82 32a26.18 26.18 0 1 1 52.36 0 26.18 26.18 0 0 1-52.36 0Z" clip-rule="evenodd"/>
  </g>
  <defs>
    <clipPath id="a">
      <path fill="#fff" d="M0 0h64v64H0z"/>
    </clipPath>
  </defs>
</svg>
